<?xml version="1.0" encoding="utf-8"?>
<!-- Generator: Adobe Illustrator 18.1.0, SVG Export Plug-In . SVG Version: 6.00 Build 0)  -->
<svg version="1.1" id="Layer_1" xmlns="http://www.w3.org/2000/svg" xmlns:xlink="http://www.w3.org/1999/xlink" x="0px"
     y="0px"
     viewBox="-170 48.3 500 500" enable-background="new -170 48.3 500 500" xml:space="preserve">
<g>
	<g>
		<path fill="#647F90" d="M134.5,423.1c0-9.6,1.8-18.9,5-27.4c-14.2-6.2-25.2-22-28.5-41.6h65.2c10.9-5.8,23.3-9,36.4-9
			c5.4,0,10.7,0.6,15.8,1.6c3.1-18.4,2.9-39.9-1.7-65.1c0,0,25.3-119-5.5-142.9c0,0-28-26.7-79.3,21.2l-32.8,30.1
			c0,0-17-8.1-44.8-6.9c-27.8-1.3-44.8,6.9-44.8,6.9l-32.8-30.1c-51.3-47.9-79.3-21.2-79.3-21.2c-30.8,23.9-5.5,142.9-5.5,142.9
			c-28.5,157,113.6,172.6,156.8,173.7c1,0,2.8,0.1,5.3,0.1c0.1,0,0.2,0,0.3,0c0.1,0,0.2,0,0.3,0c2.5,0,4.3,0,5.3-0.1
			c14.6-0.4,40.6-2.4,67.5-11.1C135.6,437.5,134.5,430.4,134.5,423.1z M153,284.3c23.8,0,43.1,25.6,43.1,57.1c0,0.8,0,1.6,0,2.4
			h-86.1c0-0.8,0-1.6,0-2.4C109.9,309.9,129.2,284.3,153,284.3z M-60,341.4c0-31.5,19.3-57.1,43.1-57.1c23.8,0,43.1,25.6,43.1,57.1
			c0,0.8,0,1.6,0,2.4H-60C-60,343-60,342.2-60,341.4z M-17,398.5c-20.5,0-37.7-19-42-44.5h84C20.7,379.5,3.6,398.5-17,398.5z
			 M117.6,416.6c-7.5,11.4-15.9,17.1-24.9,17.1c-0.2,0-0.3,0-0.5,0c-11.3-0.2-20.2-9.6-24.5-15.2c-5.6,8.5-12.2,13-19.6,13.5
			c-15.1,1.1-27.6-15.3-28.2-16c-1-1.4-0.7-3.3,0.6-4.3s3.3-0.7,4.3,0.6c0.1,0.1,11,14.4,22.8,13.5c5.7-0.4,10.9-4.4,15.5-11.8
			c-3.6-3-10.1-9-12.1-15.3c0,0-2.9-5.1,7.3-9.2c0,0,7.8-4.4,20.4,0c0,0,12.3,4.4,2.4,14.4c0,0-4.3,6.6-9.1,10.2
			c3.5,4.6,11.1,13.3,20.3,13.4c6.9,0.1,13.7-4.7,20.1-14.4c0.9-1.4,2.8-1.8,4.3-0.9C118.1,413.3,118.5,415.2,117.6,416.6z"/>
	</g>
</g>
    <g>
	<g>
		<path fill="#647F90" d="M212.6,354.5c-37.8,0-68.5,30.7-68.5,68.5s30.7,68.5,68.5,68.5s68.5-30.7,68.5-68.5
			S250.4,354.5,212.6,354.5z M187.2,455.6c-10.1,0-17.4-3.3-22.1-8.8l7.6-10.6c3.8,3.5,8.3,5.9,12.7,5.9c5.5,0,9-2,9-5.9
			c0-4.7-2.4-7.4-15.5-7.4V417c10.4,0,13.5-2.7,13.5-7c0-3.7-2.3-5.7-6.5-5.7c-4.1,0-7,1.8-11,5.1l-8.4-10.2c6.1-5.1,12.5-8,20.2-8
			c13.7,0,22.5,6.3,22.5,17.5c0,6-3.3,10.5-10,13.4v0.4c7,2.2,11.9,7,11.9,14.9C211.3,449.1,200.1,455.6,187.2,455.6z M259.6,454.4
			h-45v-9.6c14.7-13.5,26-23.9,26-32.3c0-5.6-3.1-8.2-7.6-8.2c-4.1,0-7.2,2.9-10.2,5.9l-9-9c6.5-6.9,12.3-10,21.5-10
			c12.5,0,21.3,8,21.3,20.4c0,10-9.4,20.9-17.8,29.6c3.1-0.4,7.6-0.8,10.4-0.8h10.4V454.4z"/>
	</g>
</g>
</svg>
