<?xml version="1.0" encoding="UTF-8"?>
<svg width="64px" height="52px" viewBox="0 0 64 52" version="1.1" xmlns="http://www.w3.org/2000/svg"
     xmlns:xlink="http://www.w3.org/1999/xlink">
    <!-- Generator: Sketch 41 (35326) - http://www.bohemiancoding.com/sketch -->
    <title>Group 8</title>
    <desc>Created with Sketch.</desc>
    <defs>
        <polygon id="path-1"
                 points="0.590820312 55.4542695 68.7207031 55.4542695 68.7207031 0.146652295 0.590820312 0.146652295 0.590820312 17.5541769"></polygon>
        <path d="M63.4501634,50.365071 C63.4501634,42.7550477 61.1355207,28.9508193 57.2583587,23.4168757 L60.7999788,7.7040153 C60.7999788,7.7040153 60.8026892,3.58997406 56.4539255,5.64699468 L45.4574754,13.4299112 C42.1400016,11.9187975 38.5203233,11.0842815 34.725827,11.0842815 C31.3256874,11.0842815 28.065131,11.7554338 25.0376651,12.9806612 L14.1515265,5.64699468 C9.80682833,3.58997406 9.80953868,7.7040153 9.80953868,7.7040153 L12.2068472,23.3991779 C8.32019892,28.9358443 6.00013552,42.7468795 6.00013552,50.365071 L63.4501634,50.365071 Z"
              id="path-3"></path>
        <mask id="mask-4" maskContentUnits="userSpaceOnUse" maskUnits="objectBoundingBox" x="-3" y="-3"
              width="63.4500279" height="51.2940421">
            <rect x="3.00013552" y="2.07102891" width="63.4500279" height="51.2940421" fill="white"></rect>
            <use xlink:href="#path-3" fill="black"></use>
        </mask>
    </defs>
    <g id="Hub-setup" stroke="none" stroke-width="1" fill="none" fill-rule="evenodd">
        <g id="Group-8" transform="translate(-4.000000, -3.000000)">
            <path d="M26.515625,13.9160156 C26.515625,13.9160156 19.1494141,16.918457 13.2109375,24.5766602 C11.5522461,19.111084 10.2702637,7.37939453 10.2702637,7.37939453 C10.2702637,7.37939453 11.4089355,3.05566406 16.260498,6.14916992 C21.1120605,9.24267578 26.2451172,12.619873 26.2451172,12.619873 L26.515625,13.9160156 Z"
                  id="Path-4" fill="#D8D8D8"></path>
            <path d="M62.4921875,14.9160156 C62.4921875,14.9160156 55.1259766,17.918457 49.1875,25.5766602 C47.5288086,20.111084 46.2468262,8.37939453 46.2468262,8.37939453 C46.2468262,8.37939453 47.385498,4.05566406 52.2370605,7.14916992 C57.088623,10.2426758 62.2216797,13.619873 62.2216797,13.619873 L62.4921875,14.9160156 Z"
                  id="Path-4" fill="#D8D8D8"
                  transform="translate(54.369507, 15.805297) scale(-1, 1) rotate(-2.000000) translate(-54.369507, -15.805297) "></path>
            <g id="Add-a-Hub" transform="translate(0.982422, 0.001372)">
                <g id="Group">
                    <g id="Hub-Filled" transform="translate(0.056641, 0.817871)">
                        <g id="Group-3" transform="translate(0.000000, 0.369066)">
                            <mask id="mask-2" fill="white">
                                <use xlink:href="#path-1"></use>
                            </mask>
                            <g id="Clip-2"></g>
                            <g id="Fill-1" mask="url(#mask-2)" stroke-width="6" stroke="#B7B7B7">
                                <use mask="url(#mask-4)" xlink:href="#path-3"></use>
                            </g>
                        </g>
                    </g>
                </g>
            </g>
        </g>
    </g>
</svg>