<svg xmlns="http://www.w3.org/2000/svg" xml:space="preserve" viewBox="10 10 850 850">
  <path fill="none" stroke="#000" stroke-linecap="round" stroke-linejoin="round" stroke-width="6" d="M298.5 213.5c-8.041.565-15.432 3.655-22.99 6.031-22.845 7.184-44.136 17.61-64.016 30.96C195.14 261.47 181.67 275.566 168.5 290c-22.503 24.664-45.158 49.191-67.444 74.05-14.043 15.665-28.695 30.876-40.97 48.012-11.529 16.096-19.848 33.875-23.475 53.458-1.916 10.345-1.843 20.947-1.602 31.479.413 18.014 6.377 34.822 10.602 52.095 4.036 16.506 10.222 32.067 15.892 47.903 6.107 17.055 13.047 33.78 19.995 50.503 10.005 24.08 19.766 48.267 30.076 72.217 8.112 18.843 15.633 37.952 24.893 56.298 7.964 15.78 20.115 27.285 35.546 35.457 20.61 10.915 42.693 17.518 65.48 22.057 13.246 2.639 26.572 4.536 39.992 6.088 16.14 1.866 32.302 2.983 48.504 4.033 17 1.103 33.991 1.51 51.006 1.98 18.675.516 37.338.187 56.004.34 16.832.137 33.668.143 50.5.001 23.186-.194 46.351-1.222 69.496-2.536 11.022-.626 22.032-1.696 32.998-2.984 26.382-3.097 52.503-7.559 77.495-16.98 16.209-6.11 31.822-13.222 45.084-24.889 11.06-9.729 17.896-22.176 23.794-35.144 5.939-13.057 10.519-26.726 16.193-39.913 10.842-25.195 21.178-50.593 31.452-76.021 11.614-28.745 24.386-57.132 33.11-86.866 5.055-17.227 13.147-33.654 15.252-51.654 1.629-13.926 2.12-27.88.31-42.009-3.027-23.617-13.195-43.901-27.262-62.417-18.609-24.495-39.695-46.923-59.96-70.026-15.643-17.833-31.818-35.2-47.417-53.073-22.197-25.432-49.126-43.75-80.489-56.103-13.919-5.483-28.093-9.79-42.556-13.357"/>
	<path fill="none" stroke="#000" stroke-linecap="round" stroke-linejoin="round" stroke-width="4" d="M47.5 550.5c2.27 1.063 3.841 2.716 5.038 4.98 7.543 14.271 17.244 26.983 27.925 39.052 27.61 31.2 61.29 54.116 98.589 71.859 25.415 12.09 52.143 20.686 79.425 27.698 28.979 7.449 58.383 12.397 88.04 15.767 15.245 1.733 30.616 2.524 45.973 3.327 18.682.977 37.344.871 56.01.741 27.612-.192 55.136-2.326 82.488-6.016 26.294-3.547 52.34-8.635 78.002-15.446 20.975-5.567 41.593-12.344 61.477-21.037 30.682-13.413 59.327-30.39 84.967-52.003 20.785-17.52 38.838-37.622 52.945-60.995 1.39-2.302 3.149-3.566 5.121-4.927"/>
	<path fill="none" stroke="#000" stroke-linecap="round" stroke-linejoin="round" stroke-width="6" d="M570.5 212c-1.784-2.566-.498-5.33-.482-8 .135-22.167.275-44.334.493-66.5.26-26.5 1.219-52.988 1.082-79.5-.088-17.115-10.68-28.793-24.088-33.515-12.005-4.227-24.425-6.379-36.999-8.034-17.934-2.36-35.946-3.207-53.993-4.192-17.394-.95-34.702-.106-52.006.465-13.18.435-26.395 1.758-39.52 3.686-12.857 1.889-25.671 3.653-38.001 8.05-14.138 5.043-25.455 17.12-25.481 37.04-.023 17.667.516 35.352-.12 52.996-1.122 31.168-.321 62.345-1.048 93.5-.455 19.504-.063 39.035-1.036 58.494-.943 18.837-.07 37.722-1.915 56.499-.32 3.246.12 6.348.164 9.51.215 15.35-.901 30.666-1.276 45.995-.486 19.831-1.174 39.674-1.955 59.499-.808 20.5-1.394 41.01-2.267 61.51-.357 8.372 2.497 11.962 10.44 15.018 9.846 3.787 20.258 4.993 30.502 7.009 12.733 2.505 25.7 3.08 38.521 4.86 4.764.662 9.662.661 14.494.978 25.467 1.669 50.995 1.46 76.487.949 11.15-.224 22.353-.994 33.497-1.9 11.864-.964 23.747-2.134 35.486-4.046 11.318-1.842 22.732-3.618 33.523-7.866 2.657-1.047 5.37-2.023 7.484-4.02 2.848-2.69 4.408-5.396 4.267-9.993-.378-12.33-1.016-24.664-1.447-36.985-1.17-33.498-2.364-66.986-3.07-100.501-.228-10.82-.402-21.673-.729-32.506-.772-25.66-1.202-51.324-1.074-77 .06-11.832-.617-23.666-.915-35.5-.048-1.877-.415-3.86.982-5.5m-470 364c3.357-.012 1.713 2.536 1.97 4.005 1.715 9.791 9.411 15.001 16.045 20.978 15.393 13.867 32.178 26.16 50.662 35.154 16.93 8.237 33.28 17.917 51.313 23.894 21.528 7.137 43.195 13.656 65.493 18.056 13.781 2.72 27.575 5.147 41.5 7.034 11.817 1.6 23.64 2.855 35.507 3.98 29.625 2.81 59.308 3.195 89.009 2.815 13.673-.175 27.355-.969 40.995-1.998 12.529-.946 25.087-2.074 37.486-4.046 15.906-2.529 31.781-5.226 47.58-8.591a471 471 0 0 0 66.425-19.322c10.356-3.856 20.649-8.174 29.862-14.193 5.16-3.372 11.143-3.516 16.197-6.695 21.076-13.258 42.463-26.057 60.435-43.593 3.557-3.47 6.65-6.845 7.782-12.425 2.234-11.011-.527-17.872-11.015-22.042-7.803-3.103-16.09-4.288-24.237-6.051-10.727-2.322-21.7-2.406-32.53-3.798-10.905-1.402-21.971-1.751-32.981-2.09-10.823-.332-21.665-.072-32.498-.072s-21.674-.225-32.496.116c-4.065.128-7.756-2.011-12.033-.713-14.597 4.433-29.486 7.818-44.492 10.48-9.22 1.635-18.682 1.861-27.972 3.17-19.914 2.805-40.008 2.72-60.017 3.741-11.938.61-24.036 1.288-35.995-.764-1.295-.222-2.666-.102-3.994-.019-11.033.69-22.073-.209-32.984-1.202-25.068-2.281-50.195-4.6-74.526-11.777-5.269-1.554-10.704-2.547-15.96-4.135-1.374-.415-2.57-.43-3.487.17-1.79 1.168-3.664.92-5.544.923-13.667.019-27.338.236-40.999-.05-15.858-.33-31.707.204-47.487 1.263-11.681.784-23.39 2.235-35.053 3.413-9.308.94-18.292 3.068-27.455 4.423-5.337.789-10.376 2.76-14.97 5.52-5.327 3.198-7.843 8.243-8.036 14.441"/>
	<path fill="none" stroke="#000" stroke-linecap="round" stroke-linejoin="round" stroke-width="3" d="M758 586c2.106.5 3.765.428 5.56-1.442 18.533-19.294 34.747-40.03 42.966-66.05 6.758-21.392 7.797-42.657 1.67-64.563-5.122-18.313-15.124-33.427-27.25-47.397-17.956-20.684-36.266-41.06-54.451-61.543-10.972-12.359-22.177-24.516-32.939-37.053-8.926-10.4-18.215-20.434-28.073-29.935-19.337-18.637-41.937-32.05-66.976-41.536-9.15-3.467-18.347-6.723-28.007-8.481M299 229c-7.822.208-14.866 3.55-21.945 6.15-22.985 8.442-44.465 19.85-63.523 35.389-11.363 9.265-21.046 20.283-31.017 30.975C172.78 311.95 163.163 322.497 153.5 333c-13.337 14.497-26.675 28.992-39.999 43.501-11.01 11.99-22.216 23.81-32.94 36.052-10.073 11.498-18.23 24.17-23.192 38.902-4.078 12.108-6.159 24.493-5.7 37.038.806 22.042 7.338 42.677 18.918 61.451 7.617 12.35 16.584 23.769 26.88 34.088 1.88 1.886 3.669 3.476 6.532 2.967"/>
	<path fill="none" stroke="#000" stroke-linecap="round" stroke-linejoin="round" stroke-width="4" d="M280 516.5c12.091 9.82 26.79 12.253 41.479 15.11 13.269 2.581 26.647 4.292 40.036 5.755 13.266 1.45 26.647 1.898 39.987 2.602 9.49.502 19.019 1.262 28.494.914 18.836-.691 37.693-.407 56.524-2.17 11.814-1.106 23.702-1.802 35.466-3.318 18.487-2.381 37.01-4.777 54.551-11.8 4.439-1.777 7.827-4.994 11.963-7.093m-295.5 59c5.234-.265 9.222 3.284 13.974 4.593 10.058 2.77 20.21 4.945 30.527 6.4 9.662 1.364 19.3 3.14 29.012 3.818 5.16.36 10.308.987 15.482 1.282 22.487 1.282 44.998 2.751 67.497 1.728 14.668-.667 29.379-.87 44.034-2.598 7.935-.936 16.043-1.23 23.954-2.364 18.843-2.7 37.818-5.117 55.53-12.836.42-.183.99-.023 1.49-.023"/>
	<path fill="none" stroke="#000" stroke-linecap="round" stroke-linejoin="round" stroke-width="6" d="M292 549.5c-1.465 10 .132 20.005.214 29.998.06 7.32.102 14.67.256 22.003.262 12.428 2.067 11.843 11.078 15.893 10.573 4.753 22.083 6.167 33.426 8.247 12.284 2.252 24.73 2.9 37.041 4.757 4.427.668 8.999.636 13.496.949 24.296 1.691 48.658 1.447 72.987 1.017 14.346-.254 28.715-1.436 42.99-2.97 18.87-2.027 37.738-4.375 56.005-9.916 2.216-.672 4.769-1.147 6.425-2.573 4.69-4.037 10.045-3.518 15.583-3.468 18.498.167 37.012-.365 55.494.209 12.989.402 26.058 1.417 38.5 5.87 5.185 1.856 10.442 3.726 12.005 9.984"/>
	<path fill="none" stroke="#000" stroke-linecap="round" stroke-linejoin="round" stroke-width="4" d="M313 36.5c1.709 6.843 6.892 9.918 13 12.001 16.707 5.7 34.027 8.052 51.484 10.13 19.3 2.296 38.656 3.21 58.016 3.21 19.527.001 39.05-.943 58.515-3.21 16.893-1.968 33.714-3.94 49.983-9.136 3.012-.962 6.131-1.72 8.971-3.06 4.177-1.969 6.743-5.498 8.031-9.935"/>
	<path fill="none" stroke="#000" stroke-linecap="round" stroke-linejoin="round" stroke-width="6" d="M573 325.5c12.165 3.47 23.473 8.908 34.502 14.996 25.728 14.203 44.896 35.556 62.963 58.032 15.834 19.699 31.544 39.503 46.96 59.53 7.494 9.736 15.031 19.384 18.265 31.893 4.047 15.648 1.23 29.851-6.251 43.515-3.303 6.033-7.272 11.7-10.939 17.534M296 326.5c-6.002.62-11.105 3.703-16.504 5.99-23.911 10.129-44.129 25.489-61.401 44.596-13.474 14.905-26.083 30.591-39.099 45.91-11.482 13.516-22.95 27.043-34.512 40.49-8.087 9.408-14.754 19.832-16.744 32.053-1.95 11.976.159 24.022 5.87 34.903 3.749 7.14 8.557 13.725 12.89 20.558"/>
	<path fill="none" stroke="#000" stroke-linecap="round" stroke-linejoin="round" stroke-width="3" d="M305.5 372.5c1.866 34.308 3.107 68.632 2.486 103-.066 3.668-.622 7.35-.43 10.997.605 11.463 4.61 16.12 13.486 18.866 12.326 3.814 25.027 6.026 37.947 7.257 13.822 1.316 27.654 2.158 41.496 3.1 20.36 1.384 40.693.787 61.012.538 10.967-.134 22.044-.642 32.995-1.829 15.259-1.653 30.568-3.217 45.488-7.007 5.494-1.396 11.021-3.102 15.525-6.917 1.27-1.076 2.19-2.341 2.495-4.005"/>
	<path fill="none" stroke="#000" stroke-linecap="round" stroke-linejoin="round" stroke-width="4" d="M562.5 373.5c-1.243 31.99-3.227 63.96-2.47 96 .118 5.004.676 9.998.958 15 .224 3.975-.096 7.88-2.316 11.919-10.162-5.972-21.933-7.14-33.23-9.658-5.604-1.25-11.571-1.841-17.435-2.338-8.193-.694-16.318-2.372-24.514-2.786-6.997-.353-14.004-.915-20.995-1.032-18.495-.31-37.025-.705-55.488.115-11.492.51-23.04 1.084-34.541 2.533-9.13 1.15-18.35 1.94-27.456 3.331-11.832 1.808-23.562 4.255-34.513 9.416"/>
	<path fill="none" stroke="#000" stroke-linecap="round" stroke-linejoin="round" stroke-width="5" d="M401 33.5c.936 4.107 5.233 3.842 7.545 4.231 19.641 3.31 39.366 4.103 58.952-.741 1.593-.394 3.658-1.85 6.078-4.059-.928-2.282-2.547-3.359-5.05-4.023-6.587-1.746-13.186-2.916-20.025-2.963-4.169-.028-8.25-1.228-12.503-.996-9.394.513-18.74 1.512-27.969 3.205-2.788.512-6.205 1.414-7.528 4.846"/>
	<path fill="none" stroke="#000" stroke-linecap="round" stroke-linejoin="round" stroke-width="6" d="M294 612.5c-2.045 1.124-4.273 1.01-6.5 1.008-20.333-.013-40.672-.3-60.998.096-13.32.258-26.633 1.316-39.514 5.358-5.933 1.861-11.653 3.808-14.488 10.038"/>
	<path fill="none" stroke="#000" stroke-linecap="round" stroke-linejoin="round" stroke-width="3" d="M750 569.5c.226 4.818-2.612 8.266-5.538 11.465-11.34 12.399-24.105 23.282-37.002 33.987-6.227 5.168-12.382 10.404-19.201 14.937-2.949 1.96-7.445 5.05-7.759 10.111M112 569.5c-.498 6.688 4.283 10.812 8.11 14.897 14.723 15.71 30.957 29.833 47.983 42.983 4.002 3.09 7.182 6.21 8.407 11.12"/>
	<path fill="none" stroke="#000" stroke-linecap="round" stroke-linejoin="round" stroke-width="6" d="M576.5 549.5c0 6.5.597 13.068-.13 19.485-1.34 11.844-.508 23.683-.93 35.513-.09 2.515-.94 5.002-1.44 7.502m3.5-108c7.698 1.817 11.953 7.32 12.77 14.526.724 6.374 1.121 13.048-.759 19.477-.854 2.92-4.185 4.577-4.011 7.997M291 504c-9.708 3.175-11.905 6.138-12.453 16.503-.272 5.152.114 10.337-.098 15.495-.17 4.088 3.374 6.182 4.551 9.502"/>
	<path fill="none" stroke="#000" stroke-linecap="round" stroke-linejoin="round" stroke-width="3" d="M309.5 496.5c-3.782 1.425-7.441 2.989-8.718 7.954 4.19 5.367 10.188 7.669 16.718 9.046m242-17.5c.5.333.97.73 1.505.99 2.925 1.42 6.53 3.277 6.222 6.484-.354 3.678-4.18 5.423-7.724 6.535-3.671 1.152-7.126 2.986-11.003 3.491"/>
</svg>
