<?xml version="1.0" encoding="utf-8"?>
<!-- Generator: Adobe Illustrator 21.1.0, SVG Export Plug-In . SVG Version: 6.00 Build 0)  -->
<svg version="1.1" id="Layer_1" xmlns="http://www.w3.org/2000/svg" xmlns:xlink="http://www.w3.org/1999/xlink" x="0px"
     y="0px"
     viewBox="0 0 400 400" xml:space="preserve">
<g>
	<path d="m119.64 4.875c-40.035 20.297-46.581 98.799-10.955 131.36 19.832 18.125 48.339 18.411 66.928 0.672 47.298-45.134-1.294-159.75-55.973-132.03m138.03-3.015c-35.049 4.439-61.31 61.687-49.186 107.23 10.582 39.748 52.955 54.068 82.197 27.777 46.077-41.427 21.507-141.91-33.011-135m-103.2 24.656c24.599 22.128 30.186 74.257 10.164 94.823-36.596 37.589-80.163-28.751-53.999-82.226 10.303-21.06 28.587-26.314 43.835-12.597m126.35 0.463c24.832 24.833 21.151 80.968-6.524 99.463-35.82 23.939-66.446-30.778-43.866-78.374 13.708-28.893 34.065-37.413 50.39-21.089m-248.45 68.829c-26.331 10.74-33.578 67.499-12.419 97.26 27.083 38.093 76.263 24.534 79.6-21.946 3.212-44.742-35.563-88.211-67.181-75.314m306.96 1.311c-36.309 15.949-51.786 80.705-25.395 106.25 32.063 31.033 78.746-1.472 78.551-54.694-0.15-40.964-24.189-64.279-53.156-51.554m-283.48 17.348c8.567 4.43 20.646 20.99 24.181 33.151 10.317 35.488-13.999 62.618-38.225 42.649-31.001-25.554-18.567-92.663 14.044-75.8m306.28-1.144c12.1 4.601 17.978 36.663 10.249 55.908-11.186 27.853-35.714 36.741-48.418 17.545-18.883-28.534 10.02-84.155 38.169-73.453m-181.31 38.09c-23.21 4.343-63.366 29.831-80.161 50.881-69.675 87.324-5.064 185.68 92.126 140.24l12.51-5.849 9.686 4.827c55.819 27.815 112.37-4.121 112.66-63.624 0.368-74.709-75.269-139.86-146.82-126.47m40.316 17.98c26.51 6.108 59.903 32.056 74.809 58.13 38.503 67.351 0.93 124.09-71.177 107.49l-10.802-2.487 17.594-17.705c25.373-25.534 37.664-50.932 37.664-77.83 0-15.521-3.242-15.261-7.641 0.613-11.661 42.078-43.287 77.06-83.278 92.112-76.042 28.622-118.6-45.755-66.071-115.48 10.498-13.935 19.905-23.024 17.721-17.122-11.85 32.018 1.936 78.167 31.486 105.41 10.701 9.863 13.129 6.047 4.323-6.793-49.962-72.838-19.004-143.47 55.372-126.34"
          fill-rule="evenodd"/>
</g>
</svg>
