<?xml version="1.0" encoding="UTF-8"?>
<svg width="61px" height="61px" viewBox="0 0 61 61" version="1.1" xmlns="http://www.w3.org/2000/svg" xmlns:xlink="http://www.w3.org/1999/xlink">
    <!-- Generator: Sketch 41 (35326) - http://www.bohemiancoding.com/sketch -->
    <title>In Icon</title>
    <desc>Created with Sketch.</desc>
    <defs>
        <circle id="path-1" cx="30.5" cy="30.5" r="30.5"></circle>
        <mask id="mask-2" maskContentUnits="userSpaceOnUse" maskUnits="objectBoundingBox" x="0" y="0" width="61" height="61" fill="white">
            <use xlink:href="#path-1"></use>
        </mask>
        <polygon id="path-3" points="31.694429 33.4756098 0 33.4756098 0 0.000523056402 31.694429 0.000523056402"></polygon>
    </defs>
    <g id="Lock" stroke="none" stroke-width="1" fill="none" fill-rule="evenodd">
        <g id="Locked" transform="translate(-46.000000, -214.000000)">
            <g transform="translate(26.000000, 198.000000)" id="In-Icon">
                <g transform="translate(20.000000, 16.000000)">
                    <use id="Oval" stroke="#81CB65" mask="url(#mask-2)" stroke-width="4" xlink:href="#path-1"></use>
                    <g id="Home-Icon" transform="translate(14.506098, 12.646341)">
                        <mask id="mask-4" fill="white">
                            <use xlink:href="#path-3"></use>
                        </mask>
                        <g id="Clip-2"></g>
                        <path d="M15.8470033,0.000523056402 L-0.000422344611,18.4706907 L1.48623068,19.9498942 L5.28838804,15.6922151 L5.28838804,29.2916816 C5.28838804,31.6025448 7.21533533,33.4761328 9.53823068,33.4761328 L11.2814581,33.4761328 L11.2814581,20.3578782 L20.256281,20.3578782 L20.256281,33.4761328 L22.1557759,33.4761328 C24.4786713,33.4761328 26.4056186,31.6025448 26.4056186,29.2916816 L26.4056186,15.6922151 L30.2077759,19.9498942 L31.694429,18.4706907 L15.8470033,0.000523056402 Z" id="Fill-1" fill="#81CB65" mask="url(#mask-4)"></path>
                    </g>
                </g>
            </g>
        </g>
    </g>
</svg>