<?xml version="1.0" encoding="UTF-8"?>
<svg width="62px" height="62px" viewBox="0 0 62 62" version="1.1" xmlns="http://www.w3.org/2000/svg" xmlns:xlink="http://www.w3.org/1999/xlink">
    <!-- Generator: Sketch 41 (35326) - http://www.bohemiancoding.com/sketch -->
    <title>Out Icon</title>
    <desc>Created with Sketch.</desc>
    <defs>
        <circle id="path-1" cx="30.5" cy="30.5" r="30.5"></circle>
        <mask id="mask-2" maskContentUnits="userSpaceOnUse" maskUnits="objectBoundingBox" x="0" y="0" width="61" height="61" fill="white">
            <use xlink:href="#path-1"></use>
        </mask>
        <polygon id="path-3" points="36.8216046 22.3382145 36.8216046 0.23816613 0.00011745828 0.23816613 0.00011745828 22.3382145 36.8216046 22.3382145"></polygon>
    </defs>
    <g id="Lock" stroke="none" stroke-width="1" fill="none" fill-rule="evenodd">
        <g id="Out-Icon" transform="translate(0.500000, 0.664062)">
            <use id="Oval" stroke="#FA8138" mask="url(#mask-2)" stroke-width="4" xlink:href="#path-1"></use>
            <g id="Weather-Icon" transform="translate(11.902439, 11.158537)">
                <path d="M17.4902426,3.68560906 C16.9820398,3.68560906 16.5697612,3.27293559 16.5697612,2.76424598 L16.5697612,0.921127932 C16.5697612,0.412438324 16.9820398,0.00015676105 17.4902426,0.00015676105 C17.9984454,0.00015676105 18.410724,0.412438324 18.410724,0.921127932 L18.410724,2.76424598 C18.410724,3.27293559 17.9984454,3.68560906 17.4902426,3.68560906" id="Fill-1" fill="#FA8138"></path>
                <path d="M24.8545244,5.52837439 C24.6188248,5.52837439 24.3831252,5.43823679 24.2026309,5.25913729 C23.8436001,4.89976258 23.8436001,4.31582767 24.2026309,3.95645296 L26.0439852,2.11372681 C26.403016,1.7543521 26.9863922,1.7543521 27.3434653,2.11372681 C27.7044538,2.47310152 27.7044538,3.05703643 27.3434653,3.41641114 L25.5025026,5.25913729 C25.323966,5.4398044 25.0882664,5.52837439 24.8525668,5.52837439 L24.8545244,5.52837439 Z" id="Fill-3" fill="#FA8138"></path>
                <path d="M30.3777651,11.0571015 L28.5364108,11.0571015 C28.0285995,11.0571015 27.6159294,10.6440361 27.6159294,10.1353465 C27.6159294,9.62704882 28.0285995,9.21437535 28.5364108,9.21437535 L30.3777651,9.21437535 C30.8859679,9.21437535 31.2982465,9.62704882 31.2982465,10.1353465 C31.2982465,10.6440361 30.8859679,11.0571015 30.3777651,11.0571015" id="Fill-5" fill="#FA8138"></path>
                <path d="M6.44376123,11.0571015 L4.60279846,11.0571015 C4.09459564,11.0571015 3.68231707,10.6440361 3.68231707,10.1353465 C3.68231707,9.62704882 4.09459564,9.21437535 4.60279846,9.21437535 L6.44376123,9.21437535 C6.95196406,9.21437535 7.36424262,9.62704882 7.36424262,10.1353465 C7.36424262,10.6440361 6.95196406,11.0571015 6.44376123,11.0571015" id="Fill-7" fill="#FA8138"></path>
                <path d="M10.1259608,5.52837439 C9.89026123,5.52837439 9.65456162,5.43823679 9.47406739,5.25913729 L7.63310462,3.41641114 C7.27407381,3.05703643 7.27407381,2.47310152 7.63310462,2.11372681 C7.99213543,1.7543521 8.57590308,1.7543521 8.93297625,2.11372681 L10.773939,3.95645296 C11.1349275,4.31582767 11.1349275,4.89976258 10.773939,5.25913729 C10.5954024,5.4398044 10.3597028,5.52837439 10.1240032,5.52837439 L10.1259608,5.52837439 Z" id="Fill-9" fill="#FA8138"></path>
                <g id="Group-13" transform="translate(0.000000, 12.675424)">
                    <mask id="mask-4" fill="white">
                        <use xlink:href="#path-3"></use>
                    </mask>
                    <g id="Clip-12"></g>
                    <path d="M29.4570879,7.59562155 C29.3505924,7.59562155 29.2452715,7.59758107 29.1403421,7.60345961 C29.3486348,7.01560567 29.4570879,6.39052098 29.4570879,5.75289541 C29.4570879,3.34230235 27.9070302,1.28755689 25.7528453,0.532360527 C25.7512792,0.511981591 25.7457978,0.49552168 25.7438402,0.475142744 C25.0919467,0.287421386 24.3832818,0.218838426 23.6667863,0.242744486 C21.5458813,0.34620678 19.7197965,1.64183686 18.8893665,3.49749579 C17.9081983,2.50794166 16.3984679,1.71708217 15.1373575,1.16253995 C11.3313177,-0.201281189 8.71747946,0.513941104 8.69359628,0.522954864 L8.70260141,0.513941104 C3.73920603,1.59520045 0.00011745828,5.99430742 0.00011745828,11.2814658 C0.00011745828,17.3775111 4.95607381,22.3382145 11.0466772,22.3382145 L29.4570879,22.3382145 C33.5187953,22.3382145 36.8217221,19.0325159 36.8217221,14.9673099 C36.8217221,10.902104 33.5187953,7.59562155 29.4570879,7.59562155" id="Fill-11" fill="#FA8138" mask="url(#mask-4)"></path>
                </g>
                <path d="M17.4900469,5.5287663 C13.859803,5.5287663 10.7941418,7.88958771 9.67672208,11.1478661 C10.2088081,11.0926079 10.8661829,11.0871212 11.6484551,11.1568799 C11.6496297,11.1545285 11.6508042,11.1529609 11.6519788,11.1506095 C12.561889,11.209003 15.5010866,11.5781752 18.7531149,13.9715246 C18.7531149,13.9715246 19.613301,11.5930675 23.2971842,11.0835941 C23.9580828,11.0428362 24.6369917,11.0777156 25.3112022,11.1792184 C24.2027875,7.90448001 21.1316451,5.5287663 17.4900469,5.5287663" id="Fill-14" fill="#FA8138"></path>
            </g>
        </g>
    </g>
</svg>