<?xml version="1.0" encoding="UTF-8" standalone="no"?>
<svg
   xmlns:osb="http://www.openswatchbook.org/uri/2009/osb"
   xmlns:dc="http://purl.org/dc/elements/1.1/"
   xmlns:cc="http://creativecommons.org/ns#"
   xmlns:rdf="http://www.w3.org/1999/02/22-rdf-syntax-ns#"
   xmlns:svg="http://www.w3.org/2000/svg"
   xmlns="http://www.w3.org/2000/svg"
   xmlns:sodipodi="http://sodipodi.sourceforge.net/DTD/sodipodi-0.dtd"
   xmlns:inkscape="http://www.inkscape.org/namespaces/inkscape"
   version="1.1"
   id="svg265"
   width="445"
   height="441"
   viewBox="0 0 445 441"
   sodipodi:docname="icon-development.svg"
   inkscape:version="1.0.1 (3bc2e813f5, 2020-09-07)">
  <metadata
     id="metadata271">
    <rdf:RDF>
      <cc:Work
         rdf:about="">
        <dc:format>image/svg+xml</dc:format>
        <dc:type
           rdf:resource="http://purl.org/dc/dcmitype/StillImage" />
        <dc:title />
      </cc:Work>
    </rdf:RDF>
  </metadata>
  <defs
     id="defs269">
    <linearGradient
       id="linearGradient3882"
       osb:paint="solid">
      <stop
         style="stop-color:#000000;stop-opacity:1;"
         offset="0"
         id="stop3880" />
    </linearGradient>
  </defs>
  <sodipodi:namedview
     pagecolor="#ffffff"
     bordercolor="#666666"
     borderopacity="1"
     objecttolerance="10"
     gridtolerance="10"
     guidetolerance="10"
     inkscape:pageopacity="0"
     inkscape:pageshadow="2"
     inkscape:window-width="1920"
     inkscape:window-height="983"
     id="namedview267"
     showgrid="false"
     inkscape:zoom="2.4249518"
     inkscape:cx="232.3281"
     inkscape:cy="329.23274"
     inkscape:window-x="0"
     inkscape:window-y="0"
     inkscape:window-maximized="1"
     inkscape:current-layer="layer6"
     inkscape:snap-global="true"
     inkscape:lockguides="true"
     inkscape:document-rotation="0"
     showguides="false" />
  <g
     inkscape:groupmode="layer"
     id="layer1"
     inkscape:label="Border"
     style="display:inline">
    <path
       id="path362"
       style="fill:none;stroke:#728c9c;stroke-width:2;stroke-linecap:butt;stroke-linejoin:round;stroke-miterlimit:4;stroke-dasharray:none;stroke-opacity:1"
       d="M 37.015717,156.81987 C 47.821213,106.28279 75.137962,54.198774 123.84066,31.524111 161.33078,14.936123 203.51913,17.371439 243.57471,16.816543 c 31.02679,1.757456 64.13771,1.978083 91.11349,19.520845 34.03678,18.147711 61.94506,49.665393 69.04306,88.361832 13.24804,52.85505 21.34873,106.84882 30.96412,160.43947 6.47294,38.31023 3.35992,83.91026 -27.40637,111.44378 -33.21326,28.43082 -79.72305,23.48904 -120.32833,24.08721 -54.63331,-2.09629 -109.28756,0.41384 -163.91518,-0.54318 -32.914846,-2.24858 -70.022545,-6.69283 -93.51254,-32.42877 -43.469057,-70.75627 -4.679579,-159.71569 7.482757,-230.87786 z"
       sodipodi:nodetypes="ccccccccccc" />
  </g>
  <g
     inkscape:groupmode="layer"
     id="layer2"
     inkscape:label="Border 1"
     style="display:inline;opacity:1">
    <path
       id="path362-3"
       style="fill:none;stroke:#728c9c;stroke-width:4;stroke-linecap:butt;stroke-linejoin:round;stroke-miterlimit:4;stroke-dasharray:none;stroke-opacity:1"
       d="m 53.097385,159.76167 c 9.917597,-46.72889 34.9897,-94.888146 79.690445,-115.854175 34.40952,-15.338011 73.13121,-13.086207 109.89538,-13.599289 28.47729,1.625025 58.86745,1.829025 83.62658,18.049864 31.23996,16.780204 56.85499,45.922889 63.36974,81.70339 12.15943,48.87219 19.59449,98.7973 28.41976,148.34966 5.94105,35.4234 3.08383,77.58728 -25.15436,103.04602 -30.4841,26.28843 -73.17211,21.71904 -110.44082,22.27212 -50.14404,-1.9383 -100.30729,0.38267 -150.44609,-0.50224 -30.21021,-2.07914 -64.268727,-6.1885 -85.828524,-29.98513 C 6.3323365,307.81741 41.934442,225.56148 53.097385,159.76167 Z"
       sodipodi:nodetypes="ccccccccccc" />
  </g>
  <g
     inkscape:groupmode="layer"
     id="layer3"
     inkscape:label="Border 2"
     style="display:inline">
    <path
       id="path1378"
       style="fill:none;stroke:#728c9c;stroke-width:2;stroke-linecap:butt;stroke-linejoin:miter;stroke-miterlimit:4;stroke-dasharray:none;stroke-opacity:1"
       d="m 53.619455,265.59207 c 114.717715,0.27705 229.435435,0.55411 344.153155,0.83116 C 390.37142,213.60845 385.34468,159.92134 369.25797,108.85868 357.3311,78.663265 335.77378,48.236697 303.30548,38.68559 265.68624,29.809565 226.52179,30.383012 188.174,32.616419 159.84379,34.819676 130.91739,44.624313 111.70387,66.49119 91.339678,86.283244 81.928249,114.02578 77.535197,141.44532 69.007529,182.71943 61.9469,224.27862 53.619455,265.59207 Z" />
  </g>
  <g
     inkscape:groupmode="layer"
     id="layer5"
     inkscape:label="Border 3"
     style="display:inline" />
  <g
     inkscape:groupmode="layer"
     id="layer6"
     inkscape:label="Border 4"
     style="display:inline">
    <path
       id="path3907"
       style="fill:none;stroke:#718c9d;stroke-width:2;stroke-linecap:butt;stroke-linejoin:round;stroke-miterlimit:4;stroke-dasharray:none;stroke-opacity:1"
       d="m 49.109375,279.2832 c -10.488038,11.85083 -16.414272,6.22159 -21.404297,22.31836 l 0.207031,13.24219 c 0.685828,11.52122 3.638369,19.86107 5.707525,32.39831 0.578279,3.50386 14.591988,-21.96894 14.835444,-21.89831 l 3.855469,-45.5625 z m 353.104145,0.93468 -2.4883,0.014 4.44075,45.06691 9.60498,24.41696 c 4.48894,-14.59435 1.38089,-2.05997 5.90673,-21.79196 0.56257,-12.47756 1.06443,-26.23826 -0.0293,-33.51953 -7.50543,-16.86587 -10.41955,-6.8962 -17.43492,-14.18642 z m -345.596332,-0.60263 -4.158204,45.26172 347.435546,-0.1582 -4.8418,-44.30859 z m -4.610813,48.76904 -16.038759,24.72811 c 6.646901,20.93244 23.931771,35.53323 38.414579,39.38503 11.243559,3.76355 20.147595,6.52876 35.434215,8.8815 50.32955,3.47268 91.15858,0.65932 138.20312,1.91211 33.35266,0.25659 66.55164,2.1618 99.9043,-1.86133 13.30727,-2.07204 25.87219,-6.17811 37.43945,-13.01367 9.73086,-5.56137 26.40858,-28.97503 25.57291,-34.61556 l -10.85932,-25.45173 z"
       sodipodi:nodetypes="cccscccccccccccccccccccccccccc" />
  </g>
  <g
     inkscape:groupmode="layer"
     id="layer4"
     inkscape:label="Round"
     style="display:inline">
    <path
       id="path3915"
       style="fill:none;stroke:#728c9c;stroke-width:3.14615;stroke-linecap:round;stroke-linejoin:round;stroke-miterlimit:4;stroke-dasharray:none;stroke-opacity:1"
       d="m 135.00689,230.12818 c 6.66103,-0.0329 163.60629,-0.80829 174.16238,-0.35272 23.20206,1.43356 42.43696,2.85046 44.3226,11.01768 -0.0362,11.48388 -30.97306,14.33516 -43.12418,15.01204 -61.06431,0.88143 -171.88731,-1.26602 -178.55748,-1.525 -14.04146,-1.27853 -29.22672,-3.88597 -29.93309,-13.05177 2.88555,-6.2626 16.6152,-9.83116 33.12977,-11.10023 z"
       sodipodi:nodetypes="ccccccc" />
  </g>
  <g
     inkscape:groupmode="layer"
     id="layer7"
     inkscape:label="Flap">
    <path
       style="fill:none;stroke:#728c9c;stroke-width:1;stroke-linecap:butt;stroke-linejoin:miter;stroke-miterlimit:4;stroke-dasharray:none;stroke-opacity:1"
       d="m 53.619455,265.59207 46.708985,-47.67736 c -2.972085,2.83623 -23.697896,-40.10664 -25.783556,-59.75874 -0.232162,-2.18755 2.081107,-7.13942 2.081107,-7.13942 0,0 11.709699,46.72202 27.032349,63.42235 4.08948,-5.1245 9.56919,-14.96834 11.9997,-6.71176 1.46747,8.34099 -6.75896,7.85393 30.2483,7.27713 37.02909,-0.57714 161.07817,0.0602 161.07817,0.0602 l 29.25578,-0.14678 c 3.81356,0.0789 1.01106,-4.90261 3.61829,-8.87146 3.69063,-5.61805 5.36929,4.46666 8.80324,8.93496 9.73633,-6.16684 31.81404,-61.6377 30.83448,-68.33342 -0.56802,-3.88268 2.30098,10.45809 2.30098,10.45809 1.65417,1.49057 -14.66858,46.13467 -28.19778,62.88764 13.44083,15.14991 35.3582,43.81871 44.17311,46.42972 z"
       id="path3923"
       sodipodi:nodetypes="ccscccsccscscccc" />
    <g
       transform="matrix(0.02888101,0,0,-0.02888101,155.85213,184.16742)"
       id="g12"
       style="stroke:#737373;stroke-opacity:1">
      <path
         id="path14"
         style="fill:#5b788a;fill-opacity:1;fill-rule:nonzero;stroke:#737373;stroke-opacity:1"
         d="m 2498.83,726.977 c 0,-8.141 -6.64,-14.782 -14.78,-14.782 H 2164.97 V 550.637 h 305.23 c 8.14,0 14.77,-6.633 14.77,-14.774 v -53.39 c 0,-8.145 -6.63,-14.774 -14.77,-14.774 H 2164.97 V 287.668 h 319.08 c 8.14,0 14.78,-6.641 14.78,-14.785 v -53.445 c 0,-8.137 -6.64,-14.778 -14.78,-14.778 h -404.96 c -8.14,0 -14.78,6.641 -14.78,14.778 v 560.984 c 0,8.141 6.64,14.777 14.78,14.777 h 404.96 c 8.14,0 14.78,-6.636 14.78,-14.777 z M 1970.17,362.875 V 219.438 c 0,-8.137 -6.64,-14.778 -14.78,-14.778 h -71.11 c -8.14,0 -14.77,6.641 -14.77,14.778 V 348.5 c 0,57.664 -24.94,83.406 -80.81,83.406 H 1565.2 V 219.438 c 0,-8.137 -6.64,-14.778 -14.78,-14.778 h -71.1 c -8.14,0 -14.78,6.641 -14.78,14.778 v 560.984 c 0,8.141 6.64,14.777 14.78,14.777 h 300.14 c 72.03,0 122.02,-12.871 152.78,-39.367 31,-26.664 46.7,-72.148 46.7,-135.297 0,-55.469 -8.37,-93.793 -25.51,-117.055 -9.58,-12.988 -23.21,-23.32 -41.16,-31.113 38.1,-18.762 57.9,-55.812 57.9,-109.492 z m -602.26,24.648 c 0,-76.074 -18.35,-127.335 -54.6,-152.441 -35.03,-24.355 -104.01,-36.191 -210.91,-36.191 -100.03,0 -166.81,11.257 -204.271,34.461 -39.137,24.355 -58.93,69.836 -58.93,135.293 v 411.777 c 0,8.141 6.637,14.777 14.774,14.777 h 71.109 c 8.141,0 14.781,-6.636 14.781,-14.777 V 387.523 c 0,-59.57 12.407,-80.695 22.797,-87.968 9.41,-6.582 39.42,-17.668 134.66,-17.668 103.84,0 136.17,10.968 146.15,17.492 10.85,7.098 23.78,28.172 23.78,88.144 v 392.899 c 0,8.141 6.64,14.777 14.78,14.777 h 71.11 c 8.14,0 14.77,-6.636 14.77,-14.777 z M 701.879,231.73 c -33.477,-22.109 -102.512,-32.839 -211.082,-32.839 -94.719,0 -156.711,10.847 -189.555,33.191 -34.168,23.203 -51.488,68.859 -51.488,135.695 l -0.457,24.825 c -0.059,3.984 1.437,7.793 4.215,10.613 2.765,2.832 6.574,4.453 10.558,4.453 h 70.649 c 8.14,0 14.777,-6.641 14.777,-14.785 v -13.965 c 0,-58.816 12.297,-76.25 19.625,-81.445 8.195,-5.828 35.207,-15.586 123.984,-15.586 102.743,0 133.333,9.992 142.454,15.879 8.023,5.254 21.472,23.203 21.472,85.254 0,36.945 -7.734,51.601 -14.199,57.375 -5.715,5.078 -22.57,14.023 -71.113,16.621 l -143.953,6.582 c -144.129,8.886 -174.317,93.386 -174.317,162.715 0,68.683 17.84,115.785 53.043,139.968 33.942,23.321 97.551,34.629 194.465,34.629 98.18,0 161.211,-10.617 192.672,-32.433 33.187,-22.977 49.289,-68.864 49.289,-140.149 0,-8.133 -6.641,-14.773 -14.773,-14.773 h -70.653 c -8.137,0 -14.777,6.64 -14.777,14.773 0,38.848 -6.809,65.164 -19.277,74.117 -8.024,5.828 -33.133,15.524 -110.938,15.524 -89.293,0 -123.809,-8.543 -137.027,-15.699 -16.336,-8.829 -24.59,-30.653 -24.59,-64.879 0,-51.602 11.312,-65.918 18.066,-69.84 8.25,-4.848 37.981,-13.621 144.184,-18.125 101.875,-3.985 165.715,-15.703 194.98,-35.903 31.168,-21.527 46.348,-65.796 46.348,-135.472 0,-75.031 -17.199,-122.883 -52.582,-146.321 z M 2372.51,1013.75 H 203.617 C 91.1602,1013.75 0,922.586 0,810.129 V 203.625 C 0,91.1641 91.1602,0 203.617,0 h 208.656 1960.237 342.8 v 1013.75 h -342.8" />
      <path
         id="path16"
         style="fill:#5b788a;fill-opacity:1;fill-rule:nonzero;stroke:#737373;stroke-opacity:1"
         d="M 1780.38,712.195 H 1565.2 V 514.91 h 190.71 c 63.15,0 90.33,10.391 101.99,19.047 15.64,11.66 23.61,35.559 23.61,70.996 0,61.012 -11.2,81.789 -17.83,88.777 -8.03,8.426 -28.98,18.465 -83.3,18.465" />
      <path
         id="path18"
         style="fill:#5b788a;fill-opacity:1;fill-rule:nonzero;stroke:#737373;stroke-opacity:1"
         d="m 4944.47,893.074 h 22.96 c 10.96,0 18.44,1.641 22.44,4.906 4,3.282 5.99,7.606 5.99,12.997 0,3.468 -0.96,6.57 -2.89,9.32 -1.92,2.73 -4.59,4.785 -8.01,6.129 -3.41,1.347 -9.75,2.023 -19,2.023 h -21.49 z m -18.92,-65.961 v 117.211 h 40.27 c 13.78,0 23.73,-1.082 29.89,-3.246 6.16,-2.168 11.08,-5.949 14.72,-11.332 3.68,-5.391 5.48,-11.109 5.48,-17.183 0,-8.559 -3.04,-16.012 -9.16,-22.368 -6.1,-6.347 -14.22,-9.91 -24.31,-10.683 4.14,-1.735 7.45,-3.801 9.95,-6.211 4.72,-4.617 10.49,-12.36 17.32,-23.238 l 14.3,-22.95 h -23.11 l -10.38,18.473 c -8.18,14.527 -14.77,23.621 -19.78,27.281 -3.47,2.692 -8.52,4.051 -15.15,4.051 h -11.12 v -49.805 z m 47.79,151.129 c -15.31,0 -30.19,-3.922 -44.68,-11.758 -14.48,-7.851 -25.81,-19.058 -34,-33.632 -8.17,-14.582 -12.27,-29.766 -12.27,-45.543 0,-15.692 4.02,-30.731 12.06,-45.114 8.04,-14.39 19.27,-25.593 33.71,-33.636 14.43,-8.032 29.5,-12.051 45.18,-12.051 15.69,0 30.75,4.019 45.18,12.051 14.43,8.043 25.64,19.246 33.63,33.636 8,14.383 11.98,29.422 11.98,45.114 0,15.777 -4.06,30.961 -12.19,45.543 -8.13,14.574 -19.47,25.781 -34.01,33.632 -14.52,7.836 -29.4,11.758 -44.59,11.758 z m 0,18.051 c 18.28,0 36.14,-4.691 53.56,-14.078 17.41,-9.375 30.98,-22.809 40.7,-40.27 9.73,-17.465 14.57,-35.683 14.57,-54.636 0,-18.766 -4.77,-36.813 -14.35,-54.137 -9.57,-17.32 -23,-30.77 -40.27,-40.348 -17.29,-9.574 -35.35,-14.355 -54.21,-14.355 -18.86,0 -36.93,4.781 -54.21,14.355 -17.26,9.578 -30.71,23.028 -40.34,40.348 -9.62,17.324 -14.43,35.371 -14.43,54.137 0,18.953 4.88,37.171 14.65,54.636 9.76,17.461 23.36,30.895 40.78,40.27 17.42,9.387 35.27,14.078 53.55,14.078" />
      <path
         id="path20"
         style="fill:#5b788a;fill-opacity:1;fill-rule:nonzero;stroke:#737373;stroke-opacity:1"
         d="M 2883.03,199.875 V 798.207 H 3313.6 V 689.504 H 2996.03 V 551.23 h 237.19 V 446.848 H 2996.03 V 199.875 h -113" />
      <path
         id="path22"
         style="fill:#5b788a;fill-opacity:1;fill-rule:nonzero;stroke:#737373;stroke-opacity:1"
         d="m 3819.62,199.875 h -448.49 c 0,199.426 0,399.707 0,599.195 h 448.49 V 689.504 H 3483.25 V 551.656 H 3744.4 V 446.418 H 3483.25 V 311.164 h 336.37 V 199.875" />
      <path
         id="path24"
         style="fill:#5b788a;fill-opacity:1;fill-rule:nonzero;stroke:#737373;stroke-opacity:1"
         d="m 4324.82,199.875 h -448.5 c 0,199.426 0,399.707 0,599.195 h 448.5 V 689.504 H 3988.44 V 551.656 h 261.15 V 446.418 H 3988.44 V 311.164 h 336.38 V 199.875" />
      <path
         id="path26"
         style="fill:#5b788a;fill-opacity:1;fill-rule:nonzero;stroke:#737373;stroke-opacity:1"
         d="m 4497.9,308.566 h 123.25 c 136.11,0 190.03,99.317 187.47,196.895 -2.57,93.258 -57.35,186.578 -187.47,186.578 H 4497.9 Z m 422.84,196.032 c 2.56,-151.5 -89.86,-304.723 -299.59,-304.723 -73.6,0 -161.75,0 -235.37,0 V 799.07 c 73.62,0 161.77,0 235.37,0 205.44,0 297.03,-146.371 299.59,-294.472" />
    </g>
  </g>
  <g
     inkscape:groupmode="layer"
     id="layer8"
     inkscape:label="Klep">
    <path
       id="path3926"
       style="fill:none;stroke:#728c9c;stroke-width:1px;stroke-linecap:butt;stroke-linejoin:round;stroke-opacity:1"
       d="m 334.46484,128.39844 c -1.03489,0.0152 -2.07719,0.4099 -2.73046,1.15625 -40.24067,2.62036 -122.77949,0.58398 -122.77949,0.58398 -36.15486,0.0485 -85.89335,0.047 -86.26953,-0.38281 -2.09047,-2.38831 -8.15989,-1.17929 -5.25196,4.5625 1.38763,2.73992 -0.18371,18.28584 -1.20898,34.88672 -0.11153,1.80586 -4.50949,-0.72559 -5.33203,3.125 -0.85113,3.98445 1.58139,2.29884 1.6543,3.59375 0.16881,2.99683 -1.00761,7.82309 -1.82422,14.46289 -0.53905,4.38296 -3.53494,20.70947 -1.83008,17.55078 3.85034,-7.13374 8.33331,-1.88548 7.16112,3.46712 -1.1066,5.05305 8.81182,3.73194 8.81182,3.73194 67.95245,-0.69358 145.81204,-0.0801 205.28592,-0.21784 0.47003,0.0614 9.0561,1.5325 8.37944,-3.19963 -0.50275,-3.5159 3.13989,-11.97773 6.82193,-3.0817 1.37272,3.31656 -1.11649,-14.06885 -1.65554,-18.45181 -0.81661,-6.6398 -1.99303,-11.46606 -1.82422,-14.46289 0.0729,-1.29491 2.50542,0.3907 1.65429,-3.59375 -0.82254,-3.85059 -5.34217,-1.31378 -5.33203,-3.12305 0.0933,-16.64037 -1.7125,-32.17996 -1.20898,-34.88867 0.80868,-4.35034 -0.24473,-5.7522 -2.52149,-5.71875 z m -2.90625,4.48242 c 5.98087,-0.0516 3.27836,23.79705 3.74805,35.62891 0.08,2.01627 -1.79706,0.41634 -4.74219,3.75585 -2.46526,2.79539 4.68225,3.34262 4.75782,3.55274 0.58557,1.62827 -0.39383,31.57499 0.0918,31.40234 -71.30565,0.87225 -150.86136,0.81963 -216.4082,0.20118 0.48562,0.17264 -0.49377,-29.77408 0.0918,-31.40235 0.0756,-0.21012 7.22307,-0.7593 4.75781,-3.55469 -2.94513,-3.33952 -4.82219,-1.73763 -4.74219,-3.7539 0.46969,-11.83186 -2.23282,-35.68051 3.74805,-35.62891 l 85.99805,0.74219 c 0,0 81.02541,-0.58376 122.6992,-0.94336 z"
       sodipodi:nodetypes="cccsssscsssccssssssssccsscccsccccc" />
  </g>
  <g
     inkscape:groupmode="layer"
     id="layer9"
     inkscape:label="Logo" />
  <g
     inkscape:groupmode="layer"
     id="layer10"
     inkscape:label="Led">
    <ellipse
       style="fill:none;stroke:#728c9c;stroke-width:2.4874;stroke-linecap:round;stroke-linejoin:round"
       id="path1539"
       cx="121.48161"
       cy="273.08798"
       rx="1.4946277"
       ry="1.0447919" />
    <ellipse
       style="fill:none;stroke:#728c9c;stroke-width:2.4874;stroke-linecap:round;stroke-linejoin:round"
       id="path1539-3"
       cx="128.8555"
       cy="273.05258"
       rx="1.4946277"
       ry="1.0447919" />
    <ellipse
       style="fill:none;stroke:#728c9c;stroke-width:2.4874;stroke-linecap:round;stroke-linejoin:round"
       id="path1539-6"
       cx="136.11563"
       cy="273.01022"
       rx="1.4946277"
       ry="1.0447919" />
    <ellipse
       style="fill:none;stroke:#728c9c;stroke-width:2.4874;stroke-linecap:round;stroke-linejoin:round"
       id="path1539-3-7"
       cx="143.48953"
       cy="272.97482"
       rx="1.4946277"
       ry="1.0447919" />
    <ellipse
       style="fill:none;stroke:#728c9c;stroke-width:2.4874;stroke-linecap:round;stroke-linejoin:round"
       id="path1539-3-6"
       cx="150.74088"
       cy="272.9162"
       rx="1.4946277"
       ry="1.0447919" />
    <ellipse
       style="fill:none;stroke:#728c9c;stroke-width:2.4874;stroke-linecap:round;stroke-linejoin:round"
       id="path1539-6-2"
       cx="158.00099"
       cy="272.87384"
       rx="1.4946277"
       ry="1.0447919" />
    <ellipse
       style="fill:none;stroke:#728c9c;stroke-width:2.4874;stroke-linecap:round;stroke-linejoin:round"
       id="path1539-3-7-9"
       cx="165.37491"
       cy="272.83844"
       rx="1.4946277"
       ry="1.0447919" />
    <ellipse
       style="fill:none;stroke:#728c9c;stroke-width:2.4874;stroke-linecap:round;stroke-linejoin:round"
       id="path1539-6-7"
       cx="165.26642"
       cy="272.81006"
       rx="1.4946277"
       ry="1.0447919" />
    <ellipse
       style="fill:none;stroke:#728c9c;stroke-width:2.4874;stroke-linecap:round;stroke-linejoin:round"
       id="path1539-3-7-0"
       cx="172.64032"
       cy="272.77466"
       rx="1.4946277"
       ry="1.0447919" />
    <ellipse
       style="fill:none;stroke:#728c9c;stroke-width:2.4874;stroke-linecap:round;stroke-linejoin:round"
       id="path1539-9"
       cx="275.25037"
       cy="272.91437"
       rx="1.4946277"
       ry="1.0447919" />
    <ellipse
       style="fill:none;stroke:#728c9c;stroke-width:2.4874;stroke-linecap:round;stroke-linejoin:round"
       id="path1539-3-3"
       cx="282.62427"
       cy="272.87897"
       rx="1.4946277"
       ry="1.0447919" />
    <ellipse
       style="fill:none;stroke:#728c9c;stroke-width:2.4874;stroke-linecap:round;stroke-linejoin:round"
       id="path1539-6-6"
       cx="289.8844"
       cy="272.83661"
       rx="1.4946277"
       ry="1.0447919" />
    <ellipse
       style="fill:none;stroke:#728c9c;stroke-width:2.4874;stroke-linecap:round;stroke-linejoin:round"
       id="path1539-3-7-06"
       cx="297.2583"
       cy="272.80121"
       rx="1.4946277"
       ry="1.0447919" />
    <ellipse
       style="fill:none;stroke:#728c9c;stroke-width:2.4874;stroke-linecap:round;stroke-linejoin:round"
       id="path1539-3-6-2"
       cx="304.50964"
       cy="272.74258"
       rx="1.4946277"
       ry="1.0447919" />
    <ellipse
       style="fill:none;stroke:#728c9c;stroke-width:2.4874;stroke-linecap:round;stroke-linejoin:round"
       id="path1539-6-2-6"
       cx="311.76978"
       cy="272.70023"
       rx="1.4946277"
       ry="1.0447919" />
    <ellipse
       style="fill:none;stroke:#728c9c;stroke-width:2.4874;stroke-linecap:round;stroke-linejoin:round"
       id="path1539-3-7-9-1"
       cx="319.14368"
       cy="272.66483"
       rx="1.4946277"
       ry="1.0447919" />
    <ellipse
       style="fill:none;stroke:#728c9c;stroke-width:2.4874;stroke-linecap:round;stroke-linejoin:round"
       id="path1539-6-7-8"
       cx="319.03519"
       cy="272.63644"
       rx="1.4946277"
       ry="1.0447919" />
    <ellipse
       style="fill:none;stroke:#728c9c;stroke-width:2.4874;stroke-linecap:round;stroke-linejoin:round"
       id="path1539-3-7-0-7"
       cx="326.40909"
       cy="272.60104"
       rx="1.4946277"
       ry="1.0447919" />
  </g>
</svg>
